<svg xmlns="http://www.w3.org/2000/svg" version="1.1" xmlns:xlink="http://www.w3.org/1999/xlink" xmlns:svgjs="http://svgjs.dev/svgjs" width="1000" height="1078" viewBox="0 0 1000 1078"><g transform="matrix(1,0,0,1,-1.0917030567684378,0.4364372469635782)"><svg viewBox="0 0 229 247" data-background-color="#ffffff" preserveAspectRatio="xMidYMid meet" height="1078" width="1000" xmlns="http://www.w3.org/2000/svg" xmlns:xlink="http://www.w3.org/1999/xlink"><g id="tight-bounds" transform="matrix(1,0,0,1,0.24999999999997158,-0.09999999999999432)"><svg viewBox="0 0 228.49967314285715 247.2" height="247.2" width="228.49967314285715"><g><svg></svg></g><g><svg viewBox="0 0 228.49967314285715 247.2" height="247.2" width="228.49967314285715"><g transform="matrix(1,0,0,1,0,47.215199999999996)"><svg viewBox="0 0 228.49967314285715 152.7696" height="152.7696" width="228.49967314285715"><g><svg viewBox="0 0 228.49967314285715 152.7696" height="152.7696" width="228.49967314285715"><g><svg viewBox="0 0 228.49967314285715 152.7696" height="152.7696" width="228.49967314285715"><g><svg viewBox="0 0 228.49967314285715 152.7696" height="152.7696" width="228.49967314285715"><g id="textblocktransform"><svg viewBox="0 0 228.49967314285715 152.7696" height="152.7696" width="228.49967314285715" id="textblock"><g><svg viewBox="0 0 228.49967314285715 152.7696" height="152.7696" width="228.49967314285715"><g transform="matrix(1,0,0,1,0,0)"><svg width="228.49967314285715" viewBox="3.85 -35 52.35 35" height="152.7696" data-palette-color="#ffffff"><path d="M24.65 0L3.85 0 3.85-35 10.25-35 10.25-5.7 24.65-5.7 24.65 0ZM56.2 0L48.7 0 35.75-18.5 48.7-35 56.2-35 43.15-18.5 56.2 0ZM35.25 0L28.85 0 28.85-35 35.25-35 35.25 0Z" opacity="1" transform="matrix(1,0,0,1,0,0)" fill="#ffffff" class="wordmark-text-0" data-fill-palette-color="primary" id="text-0"></path></svg></g></svg></g></svg></g></svg></g><g></g></svg></g></svg></g></svg></g><path d="M0 41.215L0 1 228.5 1 228.5 41.215 214.723 41.215 214.723 14.777 13.777 14.777 13.777 41.215 0 41.215M0 205.985L0 246.2 228.5 246.2 228.5 205.985 214.723 205.985 214.723 232.423 13.777 232.423 13.777 205.985 0 205.985" fill="#ffffff" stroke="transparent" data-fill-palette-color="primary"></path></svg></g><defs></defs></svg><rect width="228.49967314285715" height="247.2" fill="none" stroke="none" visibility="hidden"></rect></g></svg></g></svg>